{
   "accessors" : [
      {
         "bufferView" : 2,
         "byteOffset" : 0,
         "componentType" : 5126,
         "count" : 8059,
         "max" : [ 1, 1, 1, 1 ],
         "min" : [ 0, 0.08919350802898407, 0, 1 ],
         "name" : "accessor_color_m0-PolyPaper20_-169860",
         "type" : "VEC4"
      },
      {
         "bufferView" : 2,
         "byteOffset" : 128944,
         "componentType" : 5126,
         "count" : 6601,
         "max" : [ 1, 1, 1, 1 ],
         "min" : [ 0, 0.08919350802898407, 0.03994716703891754, 1 ],
         "name" : "accessor_color_m1-PolyPaper21_-169866",
         "type" : "VEC4"
      },
      {
         "bufferView" : 0,
         "byteOffset" : 0,
         "componentType" : 5123,
         "count" : 12081,
         "max" : [ 8058 ],
         "min" : [ 0 ],
         "name" : "accessor_indices_0_m0-PolyPaper20_-169860",
         "type" : "SCALAR"
      },
      {
         "bufferView" : 0,
         "byteOffset" : 24162,
         "componentType" : 5123,
         "count" : 9687,
         "max" : [ 6600 ],
         "min" : [ 0 ],
         "name" : "accessor_indices_0_m1-PolyPaper21_-169866",
         "type" : "SCALAR"
      },
      {
         "bufferView" : 1,
         "byteOffset" : 96708,
         "componentType" : 5126,
         "count" : 8059,
         "max" : [ 1, 1, 1 ],
         "min" : [ -1, -1, -1 ],
         "name" : "accessor_normal_m0-PolyPaper20_-169860",
         "type" : "VEC3"
      },
      {
         "bufferView" : 1,
         "byteOffset" : 272628,
         "componentType" : 5126,
         "count" : 6601,
         "max" : [ 0.9994771, 0.9999875, 0.9996068 ],
         "min" : [ -0.9999338, -0.999988, -0.9999069 ],
         "name" : "accessor_normal_m1-PolyPaper21_-169866",
         "type" : "VEC3"
      },
      {
         "bufferView" : 1,
         "byteOffset" : 0,
         "componentType" : 5126,
         "count" : 8059,
         "max" : [ 1.656172, 1.900852, 1.387128 ],
         "min" : [ -1.268275, 1.070809, -1.580701 ],
         "name" : "accessor_position_m0-PolyPaper20_-169860",
         "type" : "VEC3"
      },
      {
         "bufferView" : 1,
         "byteOffset" : 193416,
         "componentType" : 5126,
         "count" : 6601,
         "max" : [ 1.65027, 2.010447, 1.390865 ],
         "min" : [ -1.273384, 0.9379042, -1.580701 ],
         "name" : "accessor_position_m1-PolyPaper21_-169866",
         "type" : "VEC3"
      }
   ],
   "asset" : {
      "copyright" : "Unknown",
      "extras" : {
         "GOOGLE_processor_version" : 293297437
      },
      "generator" : "glTF 1-to-2 Upgrader for Google Blocks",
      "version" : "2.0"
   },
   "bufferViews" : [
      {
         "buffer" : 0,
         "byteLength" : 43536,
         "byteOffset" : 0,
         "name" : "ushortBufferView",
         "target" : 34963
      },
      {
         "buffer" : 0,
         "byteLength" : 351840,
         "byteOffset" : 43536,
         "byteStride" : 12,
         "name" : "vec3BufferView",
         "target" : 34962
      },
      {
         "buffer" : 0,
         "byteLength" : 234560,
         "byteOffset" : 395376,
         "byteStride" : 16,
         "name" : "vec4BufferView",
         "target" : 34962
      }
   ],
   "buffers" : [
      {
         "byteLength" : 629936,
         "name" : "model",
         "uri" : "model.bin"
      }
   ],
   "cameras" : [
      {
         "perspective" : {
            "yfov" : 0.7853981633974483,
            "znear" : 0.1000000014901161
         },
         "type" : "perspective"
      }
   ],
   "extensions" : {
      "KHR_lights_punctual" : {
         "lights" : [
            {
               "color" : [ 1, 0.9333333333333333, 0.8666666666666667 ],
               "intensity" : 0.25,
               "name" : "headLight",
               "type" : "directional"
            },
            {
               "color" : [ 1, 0.9333333333333333, 0.8666666666666667 ],
               "intensity" : 0.324999988079071,
               "name" : "keyLight",
               "type" : "directional"
            }
         ]
      }
   },
   "extensionsUsed" : [ "GOOGLE_backgrounds", "GOOGLE_camera_settings", "KHR_lights_punctual" ],
   "extras" : {
      "GOOGLE_initial_camera_motion" : {
         "motionPath" : "SIDE_TO_SIDE"
      },
      "GOOGLE_lighting_rig" : {
         "disableShadows" : false
      }
   },
   "materials" : [
      {
         "alphaMode" : "OPAQUE",
         "doubleSided" : false,
         "name" : "BlocksPaper",
         "pbrMetallicRoughness" : {
            "baseColorFactor" : [ 1, 1, 1, 1 ],
            "metallicFactor" : 0,
            "roughnessFactor" : 0.6
         }
      },
      {
         "alphaMode" : "BLEND",
         "doubleSided" : false,
         "name" : "BlocksGlass",
         "pbrMetallicRoughness" : {
            "baseColorFactor" : [ 0.2, 0.2, 1, 0.3 ],
            "metallicFactor" : 1,
            "roughnessFactor" : 0.4
         }
      },
      {
         "alphaMode" : "OPAQUE",
         "doubleSided" : true,
         "name" : "BlocksGem",
         "pbrMetallicRoughness" : {
            "baseColorFactor" : [ 1, 0.4, 1, 1 ],
            "metallicFactor" : 0,
            "roughnessFactor" : 0.1
         }
      }
   ],
   "meshes" : [
      {
         "name" : "mesh_m0-PolyPaper20_-169860",
         "primitives" : [
            {
               "attributes" : {
                  "COLOR_0" : 0,
                  "NORMAL" : 4,
                  "POSITION" : 6
               },
               "indices" : 2,
               "material" : 0,
               "mode" : 4
            }
         ]
      },
      {
         "name" : "mesh_m1-PolyPaper21_-169866",
         "primitives" : [
            {
               "attributes" : {
                  "COLOR_0" : 1,
                  "NORMAL" : 5,
                  "POSITION" : 7
               },
               "indices" : 3,
               "material" : 0,
               "mode" : 4
            }
         ]
      }
   ],
   "nodes" : [
      {
         "mesh" : 1,
         "name" : "node_MeshObject-160953344-PolyPaper21"
      },
      {
         "mesh" : 0,
         "name" : "node_MeshObject-733032448-PolyPaper20"
      },
      {
         "children" : [ 3 ]
      },
      {
         "children" : [ 4 ],
         "extras" : {
            "isTransformNode" : 1
         },
         "translation" : [ 0.3389985308042665, 1.375140723048796, -0.07158904154102147 ]
      },
      {
         "children" : [ 1, 0 ],
         "translation" : [ -0.3389985308042665, -1.375140723048796, 0.07158904154102147 ]
      },
      {
         "camera" : 0,
         "children" : [ 6 ],
         "rotation" : [
            -0.1410496076210657,
            -0.3761858081918125,
            -0.05805963252249576,
            0.9139027984290063
         ],
         "translation" : [ -1.557989056907491, 2.227252087697085, 1.842657402060154 ]
      },
      {
         "extensions" : {
            "KHR_lights_punctual" : {
               "light" : 0
            }
         },
         "extras" : {
            "isHeadLight" : 1
         },
         "name" : "headLightNode",
         "translation" : [ -1.871286141022473, 0.9356430705112364, 0.9356430705112364 ]
      },
      {
         "extensions" : {
            "KHR_lights_punctual" : {
               "light" : 1
            }
         },
         "extras" : {
            "isKeyLight" : 1
         },
         "name" : "keyLightNode",
         "rotation" : [ -0.7505326882858236, -0.3752663441429118, 0, 0.5439447166468927 ],
         "scale" : [ 0, 0, 1.889999002432698 ],
         "translation" : [ -1.833320969382664, 5.201856770755692, -2.025280740129108 ]
      }
   ],
   "scene" : 0,
   "scenes" : [
      {
         "extensions" : {
            "GOOGLE_backgrounds" : {
               "color" : [ 0, 0.7372549019607844, 0.8313725490196079 ]
            },
            "GOOGLE_camera_settings" : {
               "pivot" : [ 0, 0, 0 ]
            }
         },
         "extras" : {
            "GOOGLE_camera_index" : {
               "cameraIndex" : 0,
               "nodeIndex" : 5
            },
            "GOOGLE_geometry_data" : {
               "stats" : {
                  "centroid" : [ 0.05667803305003342, 1.421858765890296, -0.1352817376964101 ],
                  "radius" : 1.871286141022473,
                  "stdev" : 1.019549331212218
               },
               "visualCenterPoint" : [ 0.3389985308042665, 1.375140723048796, -0.07158904154102147 ]
            },
            "GOOGLE_hemi_light" : {
               "groundColor" : [ 0, 0.7372549019607844, 0.8313725490196079 ]
            }
         },
         "name" : "defaultScene",
         "nodes" : [ 2, 5, 7 ]
      }
   ]
}
